<svg xmlns="http://www.w3.org/2000/svg" height="40" viewBox="0 96 960 960" width="40"><path d="m480 708.486 174.383-174.383-47.998-46.999L480 613.488 353.615 487.104l-47.998 46.999L480 708.486Zm-.239 268.846q-82.76 0-155.84-31.773t-127.38-86.051q-54.3-54.277-86.086-127.414-31.787-73.136-31.787-156.027 0-83.316 31.832-156.624 31.832-73.308 86.334-127.845 54.503-54.537 127.364-85.733 72.862-31.197 155.44-31.197 83.351 0 156.86 31.183 73.509 31.183 127.905 85.711 54.396 54.527 85.662 127.92 31.267 73.393 31.267 156.84 0 83.037-31.183 155.669t-85.697 127.141q-54.514 54.509-127.889 86.354-73.375 31.846-156.802 31.846Z"/></svg>